<svg xmlns="http://www.w3.org/2000/svg" viewBox="0 0 352 244" preserveAspectRatio="xMidYMid slice" role="img" aria-labelledby="title-github-cms-thumb">
  <title id="title-github-cms-thumb">GitHub as a CMS thumbnail - git, CDN, Next.js</title>
  <defs>
    <marker id="arr-cms-thumb" markerWidth="6" markerHeight="6" refX="5" refY="3" orient="auto">
      <path d="M0,0 L6,3 L0,6 Z" fill="#f54e00"/>
    </marker>
  </defs>
  <rect width="352" height="244" fill="#ffffff"/>

  <g stroke="#1e1f23" stroke-opacity="0.08" stroke-width="1">
    <line x1="0" y1="61" x2="352" y2="61"/>
    <line x1="0" y1="122" x2="352" y2="122"/>
    <line x1="0" y1="183" x2="352" y2="183"/>
  </g>

  <rect x="12" y="28" width="88" height="108" rx="8" fill="#eeefe9" stroke="#1e1f23" stroke-opacity="0.12"/>
  <text x="20" y="44" font-family="ui-monospace,SFMono-Regular,Menlo,monospace" font-size="6" font-weight="700" fill="#1e1f23" fill-opacity="0.55">GIT</text>
  <rect x="20" y="52" width="72" height="14" rx="3" fill="#1e1f23"/>
  <text x="56" y="62" font-family="ui-monospace,SFMono-Regular,Menlo,monospace" font-size="5" font-weight="700" fill="#fdfdf8" text-anchor="middle">blog</text>
  <rect x="20" y="72" width="72" height="10" rx="2" fill="#fdfdf8" stroke="#1e1f23" stroke-opacity="0.08"/>
  <rect x="20" y="86" width="72" height="10" rx="2" fill="#f54e00" fill-opacity="0.15" stroke="#f54e00" stroke-opacity="0.4"/>
  <rect x="20" y="100" width="72" height="10" rx="2" fill="#fdfdf8" stroke="#1e1f23" stroke-opacity="0.08"/>
  <text x="20" y="122" font-family="ui-monospace,SFMono-Regular,Menlo,monospace" font-size="5" fill="#1e1f23" fill-opacity="0.4">posts/*.md</text>

  <path d="M 108 82 L 124 82" stroke="#1e1f23" stroke-opacity="0.4" stroke-width="1.5" fill="none" marker-end="url(#arr-cms-thumb)"/>

  <rect x="128" y="28" width="96" height="108" rx="8" fill="#eeefe9" stroke="#1e1f23" stroke-opacity="0.12"/>
  <text x="136" y="44" font-family="ui-monospace,SFMono-Regular,Menlo,monospace" font-size="6" font-weight="700" fill="#1e1f23" fill-opacity="0.55">CDN</text>
  <text x="136" y="62" font-family="ui-monospace,SFMono-Regular,Menlo,monospace" font-size="6" font-weight="700" fill="#f54e00">cdn.</text>
  <text x="136" y="74" font-family="ui-monospace,SFMono-Regular,Menlo,monospace" font-size="5" fill="#1e1f23" fill-opacity="0.55">letscodeit.dev</text>
  <rect x="192" y="48" width="24" height="16" rx="4" fill="#f54e00"/>
  <text x="204" y="59" font-family="ui-monospace,SFMono-Regular,Menlo,monospace" font-size="7" font-weight="700" fill="#fdfdf8" text-anchor="middle">$0</text>
  <text x="136" y="100" font-family="ui-monospace,SFMono-Regular,Menlo,monospace" font-size="5" fill="#1e1f23" fill-opacity="0.45">CF Pages</text>
  <text x="136" y="112" font-family="ui-monospace,SFMono-Regular,Menlo,monospace" font-size="5" fill="#1e1f23" fill-opacity="0.45">auto-deploy</text>

  <path d="M 232 82 L 248 82" stroke="#f54e00" stroke-width="1.5" fill="none" marker-end="url(#arr-cms-thumb)"/>

  <rect x="252" y="28" width="88" height="108" rx="8" fill="#eeefe9" stroke="#1e1f23" stroke-opacity="0.12"/>
  <text x="260" y="44" font-family="ui-monospace,SFMono-Regular,Menlo,monospace" font-size="6" font-weight="700" fill="#1e1f23" fill-opacity="0.55">NEXT</text>
  <rect x="260" y="52" width="72" height="22" rx="4" fill="#1e1f23"/>
  <text x="296" y="66" font-family="ui-monospace,SFMono-Regular,Menlo,monospace" font-size="5" font-weight="700" fill="#fdfdf8" text-anchor="middle">/blog</text>
  <text x="260" y="92" font-family="ui-monospace,SFMono-Regular,Menlo,monospace" font-size="5" fill="#1e1f23" fill-opacity="0.5">Vercel</text>
  <text x="260" y="104" font-family="ui-monospace,SFMono-Regular,Menlo,monospace" font-size="5" fill="#1e1f23" fill-opacity="0.5">ISR 1h</text>
  <rect x="260" y="110" width="40" height="14" rx="4" fill="#bfc1b7"/>
  <text x="280" y="120" font-family="ui-monospace,SFMono-Regular,Menlo,monospace" font-size="5" font-weight="700" fill="#1e1f23" text-anchor="middle">$0</text>

  <g font-family="ui-monospace,SFMono-Regular,Menlo,monospace" font-size="8" font-weight="700">
    <line x1="24" y1="168" x2="328" y2="168" stroke="#1e1f23" stroke-opacity="0.12"/>
    <text x="56" y="156" fill="#1e1f23" fill-opacity="0.45" text-anchor="middle">markdown</text>
    <text x="176" y="156" fill="#f54e00" text-anchor="middle">static</text>
    <text x="296" y="156" fill="#1e1f23" fill-opacity="0.45" text-anchor="middle">HTML</text>
  </g>

  <g font-family="ui-monospace,SFMono-Regular,Menlo,monospace" font-size="10" font-weight="700" letter-spacing="1.2" fill="#1e1f23">
    <text x="16" y="216" fill-opacity="0.85">GITHUB / CMS</text>
    <text x="336" y="216" text-anchor="end" fill-opacity="0.45">zero-cost</text>
  </g>
</svg>
